  0
SECTION
  2
HEADER
  9
$ACADVER
  1
AC1014
  9
$HANDSEED
  5
FFFF
  9
$MEASUREMENT
 70
     1
  0
ENDSEC
  0
SECTION
  2
TABLES
  0
TABLE
  2
VPORT
  5
8
330
0
100
AcDbSymbolTable
 70
     4
  0
VPORT
  5
2E
330
8
100
AcDbSymbolTableRecord
100
AcDbViewportTableRecord
  2
*ACTIVE
 70
     0
 10
0.0
 20
0.0
 11
1.0
 21
1.0
 12
210.0
 22
148.5
 13
0.0
 23
0.0
 14
10.0
 24
10.0
 15
10.0
 25
10.0
 16
0.0
 26
0.0
 36
1.0
 17
0.0
 27
0.0
 37
0.0
 40
341.0
 41
1.24
 42
50.0
 43
0.0
 44
0.0
 50
0.0
 51
0.0
 71
     0
 72
   100
 73
     1
 74
     3
 75
     0
 76
     0
 77
     0
 78
     0
  0
ENDTAB
  0
TABLE
  2
LTYPE
  5
5
330
0
100
AcDbSymbolTable
 70
     1
  0
LTYPE
  5
14
330
5
100
AcDbSymbolTableRecord
100
AcDbLinetypeTableRecord
  2
BYBLOCK
 70
     0
  3

 72
    65
 73
     0
 40
0.0
  0
LTYPE
  5
15
330
5
100
AcDbSymbolTableRecord
100
AcDbLinetypeTableRecord
  2
BYLAYER
 70
     0
  3

 72
    65
 73
     0
 40
0.0
  0
LTYPE
  5
16
330
5
100
AcDbSymbolTableRecord
100
AcDbLinetypeTableRecord
  2
CONTINUOUS
 70
     0
  3
Solid line
 72
    65
 73
     0
 40
0.0
  0
ENDTAB
  0
TABLE
  2
LAYER
  5
2
100
AcDbSymbolTable
 70
2
  0
LAYER
  5
50
100
AcDbSymbolTableRecord
100
AcDbLayerTableRecord
  2
0
 70
0
  6
CONTINUOUS
  0
LAYER
  5
51
100
AcDbSymbolTableRecord
100
AcDbLayerTableRecord
  2
ink_ext_XXXXXX
 70
0
  6
CONTINUOUS
  0
ENDTAB
  0
TABLE
  2
STYLE
  5
3
330
0
100
AcDbSymbolTable
 70
     1
  0
STYLE
  5
11
330
3
100
AcDbSymbolTableRecord
100
AcDbTextStyleTableRecord
  2
STANDARD
 70
     0
 40
0.0
 41
1.0
 50
0.0
 71
     0
 42
2.5
  3
txt
  4

  0
ENDTAB
  0
TABLE
  2
VIEW
  5
6
330
0
100
AcDbSymbolTable
 70
     0
  0
ENDTAB
  0
TABLE
  2
UCS
  5
7
330
0
100
AcDbSymbolTable
 70
     0
  0
ENDTAB
  0
TABLE
  2
APPID
  5
9
330
0
100
AcDbSymbolTable
 70
     2
  0
APPID
  5
12
330
9
100
AcDbSymbolTableRecord
100
AcDbRegAppTableRecord
  2
ACAD
 70
     0
  0
ENDTAB
  0
TABLE
  2
DIMSTYLE
  5
A
330
0
100
AcDbSymbolTable
 70
     1
  0
DIMSTYLE
105
27
330
A
100
AcDbSymbolTableRecord
100
AcDbDimStyleTableRecord
  2
ISO-25
 70
     0
  3

  4

  5

  6

  7

 40
1.0
 41
2.5
 42
0.625
 43
3.75
 44
1.25
 45
0.0
 46
0.0
 47
0.0
 48
0.0
140
2.5
141
2.5
142
0.0
143
0.03937007874016
144
1.0
145
0.0
146
1.0
147
0.625
 71
     0
 72
     0
 73
     0
 74
     0
 75
     0
 76
     0
 77
     1
 78
     8
170
     0
171
     3
172
     1
173
     0
174
     0
175
     0
176
     0
177
     0
178
     0
270
     2
271
     2
272
     2
273
     2
274
     3
340
11
275
     0
280
     0
281
     0
282
     0
283
     0
284
     8
285
     0
286
     0
287
     3
288
     0
  0
ENDTAB
  0
TABLE
  2
BLOCK_RECORD
  5
1
330
0
100
AcDbSymbolTable
 70
     1
  0
BLOCK_RECORD
  5
1F
330
1
100
AcDbSymbolTableRecord
100
AcDbBlockTableRecord
  2
*MODEL_SPACE
  0
BLOCK_RECORD
  5
1B
330
1
100
AcDbSymbolTableRecord
100
AcDbBlockTableRecord
  2
*PAPER_SPACE
  0
ENDTAB
  0
ENDSEC
  0
SECTION
  2
BLOCKS
  0
BLOCK
  5
20
330
1F
100
AcDbEntity
  8
0
100
AcDbBlockBegin
  2
*MODEL_SPACE
 70
     0
 10
0.0
 20
0.0
 30
0.0
  3
*MODEL_SPACE
  1

  0
ENDBLK
  5
21
330
1F
100
AcDbEntity
  8
0
100
AcDbBlockEnd
  0
BLOCK
  5
1C
330
1B
100
AcDbEntity
 67
     1
  8
0
100
AcDbBlockBegin
  2
*PAPER_SPACE
  1

  0
ENDBLK
  5
1D
330
1B
100
AcDbEntity
 67
     1
  8
0
100
AcDbBlockEnd
  0
ENDSEC
  0
SECTION
  2
ENTITIES
  0
SPLINE
  5
100
100
AcDbEntity
  8
ink_ext_XXXXXX
 62
7
100
AcDbSpline
 70
8
 71
3
 72
8
 73
4
 74
0
 40
0
 40
0
 40
0
 40
0
 40
1
 40
1
 40
1
 40
1
 10
30.511961
 20
93.082884
 30
0.0
 10
38.225235
 20
94.649217
 30
0.0
 10
43.257257
 20
99.455109
 30
0.0
 10
55.137049
 20
106.119433
 30
0.0
  0
SPLINE
  5
101
100
AcDbEntity
  8
ink_ext_XXXXXX
 62
7
100
AcDbSpline
 70
8
 71
3
 72
8
 73
4
 74
0
 40
0
 40
0
 40
0
 40
0
 40
1
 40
1
 40
1
 40
1
 10
55.137049
 20
106.119433
 30
0.0
 10
59.185879
 20
108.390617
 30
0.0
 10
64.507884
 20
109.448950
 30
0.0
 10
66.420293
 20
109.530089
 30
0.0
  0
SPLINE
  5
102
100
AcDbEntity
  8
ink_ext_XXXXXX
 62
7
100
AcDbSpline
 70
8
 71
3
 72
8
 73
4
 74
0
 40
0
 40
0
 40
0
 40
0
 40
1
 40
1
 40
1
 40
1
 10
66.420293
 20
109.530089
 30
0.0
 10
68.319648
 20
109.610522
 30
0.0
 10
73.587326
 20
109.816897
 30
0.0
 10
79.528809
 20
108.489395
 30
0.0
  0
SPLINE
  5
103
100
AcDbEntity
  8
ink_ext_XXXXXX
 62
7
100
AcDbSpline
 70
8
 71
3
 72
8
 73
4
 74
0
 40
0
 40
0
 40
0
 40
0
 40
1
 40
1
 40
1
 40
1
 10
79.528809
 20
108.489395
 30
0.0
 10
79.528809
 20
108.489395
 30
0.0
 10
78.451779
 20
109.100758
 30
0.0
 10
78.496581
 20
109.689897
 30
0.0
  0
SPLINE
  5
104
100
AcDbEntity
  8
ink_ext_XXXXXX
 62
7
100
AcDbSpline
 70
8
 71
3
 72
8
 73
4
 74
0
 40
0
 40
0
 40
0
 40
0
 40
1
 40
1
 40
1
 40
1
 10
78.496581
 20
109.689897
 30
0.0
 10
78.496581
 20
109.689897
 30
0.0
 10
70.378812
 20
117.008272
 30
0.0
 10
61.349465
 20
116.594111
 30
0.0
  0
SPLINE
  5
105
100
AcDbEntity
  8
ink_ext_XXXXXX
 62
7
100
AcDbSpline
 70
8
 71
3
 72
8
 73
4
 74
0
 40
0
 40
0
 40
0
 40
0
 40
1
 40
1
 40
1
 40
1
 10
61.349465
 20
116.594111
 30
0.0
 10
52.730751
 20
116.199000
 30
0.0
 10
47.356535
 20
110.528450
 30
0.0
 10
35.375496
 20
109.979881
 30
0.0
  0
SPLINE
  5
106
100
AcDbEntity
  8
ink_ext_XXXXXX
 62
7
100
AcDbSpline
 70
8
 71
3
 72
8
 73
4
 74
0
 40
0
 40
0
 40
0
 40
0
 40
1
 40
1
 40
1
 40
1
 10
35.375496
 20
109.979881
 30
0.0
 10
23.393717
 20
109.430606
 30
0.0
 10
23.366976
 20
108.985047
 30
0.0
 10
15.255839
 20
105.559222
 30
0.0
  0
SPLINE
  5
107
100
AcDbEntity
  8
ink_ext_XXXXXX
 62
7
100
AcDbSpline
 70
8
 71
3
 72
8
 73
4
 74
0
 40
0
 40
0
 40
0
 40
0
 40
1
 40
1
 40
1
 40
1
 10
15.255839
 20
105.559222
 30
0.0
 10
15.255839
 20
105.559222
 30
0.0
 10
25.408254
 20
107.995506
 30
0.0
 10
25.561924
 20
104.631770
 30
0.0
  0
SPLINE
  5
108
100
AcDbEntity
  8
ink_ext_XXXXXX
 62
7
100
AcDbSpline
 70
8
 71
3
 72
8
 73
4
 74
0
 40
0
 40
0
 40
0
 40
0
 40
1
 40
1
 40
1
 40
1
 10
25.561924
 20
104.631770
 30
0.0
 10
25.561924
 20
104.631770
 30
0.0
 10
20.328396
 20
96.831500
 30
0.0
 10
8.781415
 20
100.379739
 30
0.0
  0
SPLINE
  5
109
100
AcDbEntity
  8
ink_ext_XXXXXX
 62
7
100
AcDbSpline
 70
8
 71
3
 72
8
 73
4
 74
0
 40
0
 40
0
 40
0
 40
0
 40
1
 40
1
 40
1
 40
1
 10
8.781415
 20
100.379739
 30
0.0
 10
8.781415
 20
100.379739
 30
0.0
 10
8.942352
 20
99.176414
 30
0.0
 10
14.284325
 20
96.367245
 30
0.0
  0
SPLINE
  5
10a
100
AcDbEntity
  8
ink_ext_XXXXXX
 62
7
100
AcDbSpline
 70
8
 71
3
 72
8
 73
4
 74
0
 40
0
 40
0
 40
0
 40
0
 40
1
 40
1
 40
1
 40
1
 10
14.284325
 20
96.367245
 30
0.0
 10
14.284325
 20
96.367245
 30
0.0
 10
7.936265
 20
94.470712
 30
0.0
 10
-0.000000
 20
97.818573
 30
0.0
  0
SPLINE
  5
10b
100
AcDbEntity
  8
ink_ext_XXXXXX
 62
7
100
AcDbSpline
 70
8
 71
3
 72
8
 73
4
 74
0
 40
0
 40
0
 40
0
 40
0
 40
1
 40
1
 40
1
 40
1
 10
-0.000000
 20
97.818573
 30
0.0
 10
9.466015
 20
89.908237
 30
0.0
 10
26.756818
 20
92.320178
 30
0.0
 10
30.511961
 20
93.082884
 30
0.0
  0
SPLINE
  5
10c
100
AcDbEntity
  8
ink_ext_XXXXXX
 62
7
100
AcDbSpline
 70
8
 71
3
 72
8
 73
4
 74
0
 40
0
 40
0
 40
0
 40
0
 40
1
 40
1
 40
1
 40
1
 10
23.260720
 20
85.373984
 30
0.0
 10
26.673174
 20
85.091056
 30
0.0
 10
29.370407
 20
84.912903
 30
0.0
 10
33.376375
 20
85.426548
 30
0.0
  0
SPLINE
  5
10d
100
AcDbEntity
  8
ink_ext_XXXXXX
 62
7
100
AcDbSpline
 70
8
 71
3
 72
8
 73
4
 74
0
 40
0
 40
0
 40
0
 40
0
 40
1
 40
1
 40
1
 40
1
 10
33.376375
 20
85.426548
 30
0.0
 10
37.221230
 20
85.919378
 30
0.0
 10
47.021749
 20
87.888584
 30
0.0
 10
54.509104
 20
95.858892
 30
0.0
  0
SPLINE
  5
10e
100
AcDbEntity
  8
ink_ext_XXXXXX
 62
7
100
AcDbSpline
 70
8
 71
3
 72
8
 73
4
 74
0
 40
0
 40
0
 40
0
 40
0
 40
1
 40
1
 40
1
 40
1
 10
54.509104
 20
95.858892
 30
0.0
 10
63.670037
 20
105.610728
 30
0.0
 10
72.412929
 20
106.682820
 30
0.0
 10
83.325403
 20
106.117317
 30
0.0
  0
SPLINE
  5
10f
100
AcDbEntity
  8
ink_ext_XXXXXX
 62
7
100
AcDbSpline
 70
8
 71
3
 72
8
 73
4
 74
0
 40
0
 40
0
 40
0
 40
0
 40
1
 40
1
 40
1
 40
1
 10
83.325403
 20
106.117317
 30
0.0
 10
81.979556
 20
107.165067
 30
0.0
 10
81.467676
 20
107.772903
 30
0.0
 10
80.663695
 20
107.921775
 30
0.0
  0
SPLINE
  5
110
100
AcDbEntity
  8
ink_ext_XXXXXX
 62
7
100
AcDbSpline
 70
8
 71
3
 72
8
 73
4
 74
0
 40
0
 40
0
 40
0
 40
0
 40
1
 40
1
 40
1
 40
1
 10
80.663695
 20
107.921775
 30
0.0
 10
73.745018
 20
107.302297
 30
0.0
 10
66.017068
 20
111.629822
 30
0.0
 10
51.963460
 20
101.730525
 30
0.0
  0
SPLINE
  5
111
100
AcDbEntity
  8
ink_ext_XXXXXX
 62
7
100
AcDbSpline
 70
8
 71
3
 72
8
 73
4
 74
0
 40
0
 40
0
 40
0
 40
0
 40
1
 40
1
 40
1
 40
1
 10
51.963460
 20
101.730525
 30
0.0
 10
48.047274
 20
98.972156
 30
0.0
 10
43.054057
 20
92.947770
 30
0.0
 10
35.002998
 20
90.220798
 30
0.0
  0
SPLINE
  5
112
100
AcDbEntity
  8
ink_ext_XXXXXX
 62
7
100
AcDbSpline
 70
8
 71
3
 72
8
 73
4
 74
0
 40
0
 40
0
 40
0
 40
0
 40
1
 40
1
 40
1
 40
1
 10
35.002998
 20
90.220798
 30
0.0
 10
29.277521
 20
88.281226
 30
0.0
 10
15.174806
 20
87.809562
 30
0.0
 10
6.537148
 20
90.485028
 30
0.0
  0
SPLINE
  5
113
100
AcDbEntity
  8
ink_ext_XXXXXX
 62
7
100
AcDbSpline
 70
8
 71
3
 72
8
 73
4
 74
0
 40
0
 40
0
 40
0
 40
0
 40
1
 40
1
 40
1
 40
1
 10
6.537148
 20
90.485028
 30
0.0
 10
11.181256
 20
86.966776
 30
0.0
 10
19.673005
 20
85.671728
 30
0.0
 10
23.260720
 20
85.373984
 30
0.0
  0
SPLINE
  5
114
100
AcDbEntity
  8
ink_ext_XXXXXX
 62
7
100
AcDbSpline
 70
8
 71
3
 72
8
 73
4
 74
0
 40
0
 40
0
 40
0
 40
0
 40
1
 40
1
 40
1
 40
1
 10
102.592009
 20
95.555856
 30
0.0
 10
99.366209
 20
97.852439
 30
0.0
 10
90.299820
 20
99.192289
 30
0.0
 10
90.299820
 20
99.192289
 30
0.0
  0
SPLINE
  5
115
100
AcDbEntity
  8
ink_ext_XXXXXX
 62
7
100
AcDbSpline
 70
8
 71
3
 72
8
 73
4
 74
0
 40
0
 40
0
 40
0
 40
0
 40
1
 40
1
 40
1
 40
1
 10
90.299820
 20
99.192289
 30
0.0
 10
92.358984
 20
100.281667
 30
0.0
 10
93.851234
 20
99.978984
 30
0.0
 10
94.042792
 20
99.933123
 30
0.0
  0
SPLINE
  5
116
100
AcDbEntity
  8
ink_ext_XXXXXX
 62
7
100
AcDbSpline
 70
8
 71
3
 72
8
 73
4
 74
0
 40
0
 40
0
 40
0
 40
0
 40
1
 40
1
 40
1
 40
1
 10
94.042792
 20
99.933123
 30
0.0
 10
93.656853
 20
100.029431
 30
0.0
 10
89.622134
 20
101.559075
 30
0.0
 10
88.021228
 20
102.514750
 30
0.0
  0
SPLINE
  5
117
100
AcDbEntity
  8
ink_ext_XXXXXX
 62
7
100
AcDbSpline
 70
8
 71
3
 72
8
 73
4
 74
0
 40
0
 40
0
 40
0
 40
0
 40
1
 40
1
 40
1
 40
1
 10
88.021228
 20
102.514750
 30
0.0
 10
86.066134
 20
103.679622
 30
0.0
 10
84.494509
 20
104.431745
 30
0.0
 10
83.614328
 20
105.799111
 30
0.0
  0
SPLINE
  5
118
100
AcDbEntity
  8
ink_ext_XXXXXX
 62
7
100
AcDbSpline
 70
8
 71
3
 72
8
 73
4
 74
0
 40
0
 40
0
 40
0
 40
0
 40
1
 40
1
 40
1
 40
1
 10
83.614328
 20
105.799111
 30
0.0
 10
76.932365
 20
105.675992
 30
0.0
 10
66.457334
 20
107.095217
 30
0.0
 10
55.610124
 20
96.003884
 30
0.0
  0
SPLINE
  5
119
100
AcDbEntity
  8
ink_ext_XXXXXX
 62
7
100
AcDbSpline
 70
8
 71
3
 72
8
 73
4
 74
0
 40
0
 40
0
 40
0
 40
0
 40
1
 40
1
 40
1
 40
1
 10
55.610124
 20
96.003884
 30
0.0
 10
46.208596
 20
86.391395
 30
0.0
 10
40.364480
 20
85.256509
 30
0.0
 10
33.671403
 20
83.937826
 30
0.0
  0
SPLINE
  5
11a
100
AcDbEntity
  8
ink_ext_XXXXXX
 62
7
100
AcDbSpline
 70
8
 71
3
 72
8
 73
4
 74
0
 40
0
 40
0
 40
0
 40
0
 40
1
 40
1
 40
1
 40
1
 10
33.671403
 20
83.937826
 30
0.0
 10
38.885988
 20
83.748737
 30
0.0
 10
47.230946
 20
85.748987
 30
0.0
 10
52.454526
 20
89.121542
 30
0.0
  0
SPLINE
  5
11b
100
AcDbEntity
  8
ink_ext_XXXXXX
 62
7
100
AcDbSpline
 70
8
 71
3
 72
8
 73
4
 74
0
 40
0
 40
0
 40
0
 40
0
 40
1
 40
1
 40
1
 40
1
 10
52.454526
 20
89.121542
 30
0.0
 10
62.905215
 20
95.868064
 30
0.0
 10
69.227345
 20
96.918989
 30
0.0
 10
72.543457
 20
97.563867
 30
0.0
  0
SPLINE
  5
11c
100
AcDbEntity
  8
ink_ext_XXXXXX
 62
7
100
AcDbSpline
 70
8
 71
3
 72
8
 73
4
 74
0
 40
0
 40
0
 40
0
 40
0
 40
1
 40
1
 40
1
 40
1
 10
72.543457
 20
97.563867
 30
0.0
 10
75.756204
 20
98.188636
 30
0.0
 10
80.782229
 20
98.102206
 30
0.0
 10
84.323412
 20
97.742373
 30
0.0
  0
SPLINE
  5
11d
100
AcDbEntity
  8
ink_ext_XXXXXX
 62
7
100
AcDbSpline
 70
8
 71
3
 72
8
 73
4
 74
0
 40
0
 40
0
 40
0
 40
0
 40
1
 40
1
 40
1
 40
1
 10
84.323412
 20
97.742373
 30
0.0
 10
88.616364
 20
97.306339
 30
0.0
 10
92.486337
 20
96.560214
 30
0.0
 10
95.716723
 20
95.424975
 30
0.0
  0
SPLINE
  5
11e
100
AcDbEntity
  8
ink_ext_XXXXXX
 62
7
100
AcDbSpline
 70
8
 71
3
 72
8
 73
4
 74
0
 40
0
 40
0
 40
0
 40
0
 40
1
 40
1
 40
1
 40
1
 10
95.716723
 20
95.424975
 30
0.0
 10
95.716723
 20
95.424975
 30
0.0
 10
94.206481
 20
96.436389
 30
0.0
 10
93.693895
 20
96.590906
 30
0.0
  0
SPLINE
  5
11f
100
AcDbEntity
  8
ink_ext_XXXXXX
 62
7
100
AcDbSpline
 70
8
 71
3
 72
8
 73
4
 74
0
 40
0
 40
0
 40
0
 40
0
 40
1
 40
1
 40
1
 40
1
 10
93.693895
 20
96.590906
 30
0.0
 10
94.316548
 20
96.819506
 30
0.0
 10
100.377975
 20
96.572914
 30
0.0
 10
102.592009
 20
95.555856
 30
0.0
  0
SPLINE
  5
120
100
AcDbEntity
  8
ink_ext_XXXXXX
 62
7
100
AcDbSpline
 70
8
 71
3
 72
8
 73
4
 74
0
 40
0
 40
0
 40
0
 40
0
 40
1
 40
1
 40
1
 40
1
 10
110.733414
 20
109.009389
 30
0.0
 10
110.733414
 20
109.009389
 30
0.0
 10
106.559700
 20
115.184764
 30
0.0
 10
96.902056
 20
116.245919
 30
0.0
  0
SPLINE
  5
121
100
AcDbEntity
  8
ink_ext_XXXXXX
 62
7
100
AcDbSpline
 70
8
 71
3
 72
8
 73
4
 74
0
 40
0
 40
0
 40
0
 40
0
 40
1
 40
1
 40
1
 40
1
 10
96.902056
 20
116.245919
 30
0.0
 10
91.378967
 20
116.383150
 30
0.0
 10
92.134264
 20
122.455866
 30
0.0
 10
71.085426
 20
126.765047
 30
0.0
  0
SPLINE
  5
122
100
AcDbEntity
  8
ink_ext_XXXXXX
 62
7
100
AcDbSpline
 70
8
 71
3
 72
8
 73
4
 74
0
 40
0
 40
0
 40
0
 40
0
 40
1
 40
1
 40
1
 40
1
 10
71.085426
 20
126.765047
 30
0.0
 10
77.165198
 20
122.159886
 30
0.0
 10
79.517520
 20
120.013233
 30
0.0
 10
81.422520
 20
112.660992
 30
0.0
  0
SPLINE
  5
123
100
AcDbEntity
  8
ink_ext_XXXXXX
 62
7
100
AcDbSpline
 70
8
 71
3
 72
8
 73
4
 74
0
 40
0
 40
0
 40
0
 40
0
 40
1
 40
1
 40
1
 40
1
 10
81.422520
 20
112.660992
 30
0.0
 10
83.839048
 20
113.359139
 30
0.0
 10
89.631306
 20
112.502594
 30
0.0
 10
92.505387
 20
111.573378
 30
0.0
  0
SPLINE
  5
124
100
AcDbEntity
  8
ink_ext_XXXXXX
 62
7
100
AcDbSpline
 70
8
 71
3
 72
8
 73
4
 74
0
 40
0
 40
0
 40
0
 40
0
 40
1
 40
1
 40
1
 40
1
 10
92.505387
 20
111.573378
 30
0.0
 10
92.505387
 20
111.573378
 30
0.0
 10
97.702509
 20
110.608178
 30
0.0
 10
99.956053
 20
108.277022
 30
0.0
  0
SPLINE
  5
125
100
AcDbEntity
  8
ink_ext_XXXXXX
 62
7
100
AcDbSpline
 70
8
 71
3
 72
8
 73
4
 74
0
 40
0
 40
0
 40
0
 40
0
 40
1
 40
1
 40
1
 40
1
 10
99.956053
 20
108.277022
 30
0.0
 10
99.956053
 20
108.277022
 30
0.0
 10
98.510370
 20
110.866058
 30
0.0
 10
97.654531
 20
112.301864
 30
0.0
  0
SPLINE
  5
126
100
AcDbEntity
  8
ink_ext_XXXXXX
 62
7
100
AcDbSpline
 70
8
 71
3
 72
8
 73
4
 74
0
 40
0
 40
0
 40
0
 40
0
 40
1
 40
1
 40
1
 40
1
 10
97.654531
 20
112.301864
 30
0.0
 10
97.654531
 20
112.301864
 30
0.0
 10
104.372125
 20
112.538931
 30
0.0
 10
110.733414
 20
109.009389
 30
0.0
  0
SPLINE
  5
127
100
AcDbEntity
  8
ink_ext_XXXXXX
 62
7
100
AcDbSpline
 70
8
 71
3
 72
8
 73
4
 74
0
 40
0
 40
0
 40
0
 40
0
 40
1
 40
1
 40
1
 40
1
 10
90.648717
 20
95.318789
 30
0.0
 10
90.648717
 20
95.318789
 30
0.0
 10
82.093856
 20
99.389492
 30
0.0
 10
68.285782
 20
95.516345
 30
0.0
  0
SPLINE
  5
128
100
AcDbEntity
  8
ink_ext_XXXXXX
 62
7
100
AcDbSpline
 70
8
 71
3
 72
8
 73
4
 74
0
 40
0
 40
0
 40
0
 40
0
 40
1
 40
1
 40
1
 40
1
 10
68.285782
 20
95.516345
 30
0.0
 10
61.034787
 20
93.482581
 30
0.0
 10
55.715251
 20
87.847662
 30
0.0
 10
52.075643
 20
85.887981
 30
0.0
  0
SPLINE
  5
129
100
AcDbEntity
  8
ink_ext_XXXXXX
 62
7
100
AcDbSpline
 70
8
 71
3
 72
8
 73
4
 74
0
 40
0
 40
0
 40
0
 40
0
 40
1
 40
1
 40
1
 40
1
 10
52.075643
 20
85.887981
 30
0.0
 10
41.130007
 20
79.994123
 30
0.0
 10
37.353169
 20
82.759195
 30
0.0
 10
25.985787
 20
81.575273
 30
0.0
  0
SPLINE
  5
12a
100
AcDbEntity
  8
ink_ext_XXXXXX
 62
7
100
AcDbSpline
 70
8
 71
3
 72
8
 73
4
 74
0
 40
0
 40
0
 40
0
 40
0
 40
1
 40
1
 40
1
 40
1
 10
25.985787
 20
81.575273
 30
0.0
 10
21.374064
 20
81.095142
 30
0.0
 10
13.890484
 20
79.434265
 30
0.0
 10
13.433248
 20
79.428267
 30
0.0
  0
SPLINE
  5
12b
100
AcDbEntity
  8
ink_ext_XXXXXX
 62
7
100
AcDbSpline
 70
8
 71
3
 72
8
 73
4
 74
0
 40
0
 40
0
 40
0
 40
0
 40
1
 40
1
 40
1
 40
1
 10
13.433248
 20
79.428267
 30
0.0
 10
12.876106
 20
79.420154
 30
0.0
 10
19.445075
 20
79.259640
 30
0.0
 10
26.705842
 20
77.979056
 30
0.0
  0
SPLINE
  5
12c
100
AcDbEntity
  8
ink_ext_XXXXXX
 62
7
100
AcDbSpline
 70
8
 71
3
 72
8
 73
4
 74
0
 40
0
 40
0
 40
0
 40
0
 40
1
 40
1
 40
1
 40
1
 10
26.705842
 20
77.979056
 30
0.0
 10
33.519674
 20
76.776437
 30
0.0
 10
37.376805
 20
74.694343
 30
0.0
 10
37.581769
 20
73.573215
 30
0.0
  0
SPLINE
  5
12d
100
AcDbEntity
  8
ink_ext_XXXXXX
 62
7
100
AcDbSpline
 70
8
 71
3
 72
8
 73
4
 74
0
 40
0
 40
0
 40
0
 40
0
 40
1
 40
1
 40
1
 40
1
 10
37.581769
 20
73.573215
 30
0.0
 10
37.581769
 20
73.573215
 30
0.0
 10
38.337066
 20
72.025579
 30
0.0
 10
32.028376
 20
69.637626
 30
0.0
  0
SPLINE
  5
12e
100
AcDbEntity
  8
ink_ext_XXXXXX
 62
7
100
AcDbSpline
 70
8
 71
3
 72
8
 73
4
 74
0
 40
0
 40
0
 40
0
 40
0
 40
1
 40
1
 40
1
 40
1
 10
32.028376
 20
69.637626
 30
0.0
 10
32.028376
 20
69.637626
 30
0.0
 10
49.872546
 20
70.499109
 30
0.0
 10
66.381840
 20
82.021537
 30
0.0
  0
SPLINE
  5
12f
100
AcDbEntity
  8
ink_ext_XXXXXX
 62
7
100
AcDbSpline
 70
8
 71
3
 72
8
 73
4
 74
0
 40
0
 40
0
 40
0
 40
0
 40
1
 40
1
 40
1
 40
1
 10
66.381840
 20
82.021537
 30
0.0
 10
84.194648
 20
94.453778
 30
0.0
 10
86.643984
 20
90.846273
 30
0.0
 10
92.094048
 20
91.928242
 30
0.0
  0
SPLINE
  5
130
100
AcDbEntity
  8
ink_ext_XXXXXX
 62
7
100
AcDbSpline
 70
8
 71
3
 72
8
 73
4
 74
0
 40
0
 40
0
 40
0
 40
0
 40
1
 40
1
 40
1
 40
1
 10
92.094048
 20
91.928242
 30
0.0
 10
92.094048
 20
91.928242
 30
0.0
 10
90.706926
 20
93.372162
 30
0.0
 10
83.101037
 20
93.016914
 30
0.0
  0
SPLINE
  5
131
100
AcDbEntity
  8
ink_ext_XXXXXX
 62
7
100
AcDbSpline
 70
8
 71
3
 72
8
 73
4
 74
0
 40
0
 40
0
 40
0
 40
0
 40
1
 40
1
 40
1
 40
1
 10
83.101037
 20
93.016914
 30
0.0
 10
75.758673
 20
92.674014
 30
0.0
 10
68.358101
 20
87.913278
 30
0.0
 10
68.358101
 20
87.913278
 30
0.0
  0
SPLINE
  5
132
100
AcDbEntity
  8
ink_ext_XXXXXX
 62
7
100
AcDbSpline
 70
8
 71
3
 72
8
 73
4
 74
0
 40
0
 40
0
 40
0
 40
0
 40
1
 40
1
 40
1
 40
1
 10
68.358101
 20
87.913278
 30
0.0
 10
68.358101
 20
87.913278
 30
0.0
 10
73.859318
 20
94.591009
 30
0.0
 10
90.648717
 20
95.318789
 30
0.0
  0
SPLINE
  5
133
100
AcDbEntity
  8
ink_ext_XXXXXX
 62
7
100
AcDbSpline
 70
8
 71
3
 72
8
 73
4
 74
0
 40
0
 40
0
 40
0
 40
0
 40
1
 40
1
 40
1
 40
1
 10
74.499609
 20
71.015576
 30
0.0
 10
73.292051
 20
71.063554
 30
0.0
 10
67.632790
 20
68.435359
 30
0.0
 10
66.060107
 20
67.938296
 30
0.0
  0
SPLINE
  5
134
100
AcDbEntity
  8
ink_ext_XXXXXX
 62
7
100
AcDbSpline
 70
8
 71
3
 72
8
 73
4
 74
0
 40
0
 40
0
 40
0
 40
0
 40
1
 40
1
 40
1
 40
1
 10
66.060107
 20
67.938296
 30
0.0
 10
61.202357
 20
66.538473
 30
0.0
 10
60.260087
 20
65.962034
 30
0.0
 10
56.965496
 20
64.795046
 30
0.0
  0
SPLINE
  5
135
100
AcDbEntity
  8
ink_ext_XXXXXX
 62
7
100
AcDbSpline
 70
8
 71
3
 72
8
 73
4
 74
0
 40
0
 40
0
 40
0
 40
0
 40
1
 40
1
 40
1
 40
1
 10
56.965496
 20
64.795046
 30
0.0
 10
56.965496
 20
64.795046
 30
0.0
 10
59.848043
 20
67.472629
 30
0.0
 10
58.264424
 20
68.895734
 30
0.0
  0
SPLINE
  5
136
100
AcDbEntity
  8
ink_ext_XXXXXX
 62
7
100
AcDbSpline
 70
8
 71
3
 72
8
 73
4
 74
0
 40
0
 40
0
 40
0
 40
0
 40
1
 40
1
 40
1
 40
1
 10
58.264424
 20
68.895734
 30
0.0
 10
56.891412
 20
69.987582
 30
0.0
 10
54.977946
 20
68.381032
 30
0.0
 10
52.080582
 20
67.125496
 30
0.0
  0
SPLINE
  5
137
100
AcDbEntity
  8
ink_ext_XXXXXX
 62
7
100
AcDbSpline
 70
8
 71
3
 72
8
 73
4
 74
0
 40
0
 40
0
 40
0
 40
0
 40
1
 40
1
 40
1
 40
1
 10
52.080582
 20
67.125496
 30
0.0
 10
49.015296
 20
65.797287
 30
0.0
 10
44.884621
 20
64.680746
 30
0.0
 10
41.715618
 20
66.630548
 30
0.0
  0
SPLINE
  5
138
100
AcDbEntity
  8
ink_ext_XXXXXX
 62
7
100
AcDbSpline
 70
8
 71
3
 72
8
 73
4
 74
0
 40
0
 40
0
 40
0
 40
0
 40
1
 40
1
 40
1
 40
1
 10
41.715618
 20
66.630548
 30
0.0
 10
41.715618
 20
66.630548
 30
0.0
 10
47.136049
 20
65.027526
 30
0.0
 10
63.611829
 20
76.646262
 30
0.0
  0
SPLINE
  5
139
100
AcDbEntity
  8
ink_ext_XXXXXX
 62
7
100
AcDbSpline
 70
8
 71
3
 72
8
 73
4
 74
0
 40
0
 40
0
 40
0
 40
0
 40
1
 40
1
 40
1
 40
1
 10
63.611829
 20
76.646262
 30
0.0
 10
68.786726
 20
80.553629
 30
0.0
 10
74.266423
 20
85.270620
 30
0.0
 10
77.582887
 20
87.037684
 30
0.0
  0
SPLINE
  5
13a
100
AcDbEntity
  8
ink_ext_XXXXXX
 62
7
100
AcDbSpline
 70
8
 71
3
 72
8
 73
4
 74
0
 40
0
 40
0
 40
0
 40
0
 40
1
 40
1
 40
1
 40
1
 10
77.582887
 20
87.037684
 30
0.0
 10
85.656559
 20
91.339103
 30
0.0
 10
92.701884
 20
91.151778
 30
0.0
 10
92.701884
 20
91.151778
 30
0.0
  0
SPLINE
  5
13b
100
AcDbEntity
  8
ink_ext_XXXXXX
 62
7
100
AcDbSpline
 70
8
 71
3
 72
8
 73
4
 74
0
 40
0
 40
0
 40
0
 40
0
 40
1
 40
1
 40
1
 40
1
 10
92.701884
 20
91.151778
 30
0.0
 10
92.701884
 20
91.151778
 30
0.0
 10
87.894581
 20
89.762187
 30
0.0
 10
83.247440
 20
85.854467
 30
0.0
  0
SPLINE
  5
13c
100
AcDbEntity
  8
ink_ext_XXXXXX
 62
7
100
AcDbSpline
 70
8
 71
3
 72
8
 73
4
 74
0
 40
0
 40
0
 40
0
 40
0
 40
1
 40
1
 40
1
 40
1
 10
83.247440
 20
85.854467
 30
0.0
 10
82.373609
 20
85.119278
 30
0.0
 10
79.244470
 20
81.905826
 30
0.0
 10
77.412848
 20
80.480251
 30
0.0
  0
SPLINE
  5
13d
100
AcDbEntity
  8
ink_ext_XXXXXX
 62
7
100
AcDbSpline
 70
8
 71
3
 72
8
 73
4
 74
0
 40
0
 40
0
 40
0
 40
0
 40
1
 40
1
 40
1
 40
1
 10
77.412848
 20
80.480251
 30
0.0
 10
74.680937
 20
78.353706
 30
0.0
 10
68.739101
 20
74.657654
 30
0.0
 10
68.739101
 20
74.657654
 30
0.0
  0
SPLINE
  5
13e
100
AcDbEntity
  8
ink_ext_XXXXXX
 62
7
100
AcDbSpline
 70
8
 71
3
 72
8
 73
4
 74
0
 40
0
 40
0
 40
0
 40
0
 40
1
 40
1
 40
1
 40
1
 10
68.739101
 20
74.657654
 30
0.0
 10
68.739101
 20
74.657654
 30
0.0
 10
76.798662
 20
79.021515
 30
0.0
 10
80.790695
 20
82.015540
 30
0.0
  0
SPLINE
  5
13f
100
AcDbEntity
  8
ink_ext_XXXXXX
 62
7
100
AcDbSpline
 70
8
 71
3
 72
8
 73
4
 74
0
 40
0
 40
0
 40
0
 40
0
 40
1
 40
1
 40
1
 40
1
 10
80.790695
 20
82.015540
 30
0.0
 10
83.887378
 20
84.337876
 30
0.0
 10
86.577309
 20
86.960073
 30
0.0
 10
89.619664
 20
88.387764
 30
0.0
  0
SPLINE
  5
140
100
AcDbEntity
  8
ink_ext_XXXXXX
 62
7
100
AcDbSpline
 70
8
 71
3
 72
8
 73
4
 74
0
 40
0
 40
0
 40
0
 40
0
 40
1
 40
1
 40
1
 40
1
 10
89.619664
 20
88.387764
 30
0.0
 10
94.295028
 20
90.583453
 30
0.0
 10
96.314681
 20
92.322295
 30
0.0
 10
97.075975
 20
89.879309
 30
0.0
  0
SPLINE
  5
141
100
AcDbEntity
  8
ink_ext_XXXXXX
 62
7
100
AcDbSpline
 70
8
 71
3
 72
8
 73
4
 74
0
 40
0
 40
0
 40
0
 40
0
 40
1
 40
1
 40
1
 40
1
 10
97.075975
 20
89.879309
 30
0.0
 10
97.838681
 20
87.435970
 30
0.0
 10
96.256825
 20
85.215234
 30
0.0
 10
101.887511
 20
81.490959
 30
0.0
  0
SPLINE
  5
142
100
AcDbEntity
  8
ink_ext_XXXXXX
 62
7
100
AcDbSpline
 70
8
 71
3
 72
8
 73
4
 74
0
 40
0
 40
0
 40
0
 40
0
 40
1
 40
1
 40
1
 40
1
 10
101.887511
 20
81.490959
 30
0.0
 10
103.123292
 20
80.830912
 30
0.0
 10
103.744534
 20
80.852431
 30
0.0
 10
103.744534
 20
80.852431
 30
0.0
  0
SPLINE
  5
143
100
AcDbEntity
  8
ink_ext_XXXXXX
 62
7
100
AcDbSpline
 70
8
 71
3
 72
8
 73
4
 74
0
 40
0
 40
0
 40
0
 40
0
 40
1
 40
1
 40
1
 40
1
 10
103.744534
 20
80.852431
 30
0.0
 10
103.744534
 20
80.852431
 30
0.0
 10
102.320722
 20
79.482948
 30
0.0
 10
102.766634
 20
77.478465
 30
0.0
  0
SPLINE
  5
144
100
AcDbEntity
  8
ink_ext_XXXXXX
 62
7
100
AcDbSpline
 70
8
 71
3
 72
8
 73
4
 74
0
 40
0
 40
0
 40
0
 40
0
 40
1
 40
1
 40
1
 40
1
 10
102.766634
 20
77.478465
 30
0.0
 10
103.144811
 20
75.778781
 30
0.0
 10
103.400222
 20
74.929645
 30
0.0
 10
105.579683
 20
74.352148
 30
0.0
  0
SPLINE
  5
145
100
AcDbEntity
  8
ink_ext_XXXXXX
 62
7
100
AcDbSpline
 70
8
 71
3
 72
8
 73
4
 74
0
 40
0
 40
0
 40
0
 40
0
 40
1
 40
1
 40
1
 40
1
 10
105.579683
 20
74.352148
 30
0.0
 10
110.134750
 20
73.621898
 30
0.0
 10
115.973222
 20
74.489026
 30
0.0
 10
116.500272
 20
73.869901
 30
0.0
  0
SPLINE
  5
146
100
AcDbEntity
  8
ink_ext_XXXXXX
 62
7
100
AcDbSpline
 70
8
 71
3
 72
8
 73
4
 74
0
 40
0
 40
0
 40
0
 40
0
 40
1
 40
1
 40
1
 40
1
 10
116.500272
 20
73.869901
 30
0.0
 10
117.027675
 20
73.251129
 30
0.0
 10
116.261794
 20
66.413590
 30
0.0
 10
112.200969
 20
66.267540
 30
0.0
  0
SPLINE
  5
147
100
AcDbEntity
  8
ink_ext_XXXXXX
 62
7
100
AcDbSpline
 70
8
 71
3
 72
8
 73
4
 74
0
 40
0
 40
0
 40
0
 40
0
 40
1
 40
1
 40
1
 40
1
 10
112.200969
 20
66.267540
 30
0.0
 10
112.200969
 20
66.267540
 30
0.0
 10
114.639722
 20
67.621854
 30
0.0
 10
114.590686
 20
69.340940
 30
0.0
  0
SPLINE
  5
148
100
AcDbEntity
  8
ink_ext_XXXXXX
 62
7
100
AcDbSpline
 70
8
 71
3
 72
8
 73
4
 74
0
 40
0
 40
0
 40
0
 40
0
 40
1
 40
1
 40
1
 40
1
 10
114.590686
 20
69.340940
 30
0.0
 10
114.578692
 20
69.586826
 30
0.0
 10
114.200161
 20
69.076004
 30
0.0
 10
113.508011
 20
68.687596
 30
0.0
  0
SPLINE
  5
149
100
AcDbEntity
  8
ink_ext_XXXXXX
 62
7
100
AcDbSpline
 70
8
 71
3
 72
8
 73
4
 74
0
 40
0
 40
0
 40
0
 40
0
 40
1
 40
1
 40
1
 40
1
 10
113.508011
 20
68.687596
 30
0.0
 10
112.928750
 20
68.362687
 30
0.0
 10
110.766928
 20
67.442996
 30
0.0
 10
108.460820
 20
67.095157
 30
0.0
  0
SPLINE
  5
14a
100
AcDbEntity
  8
ink_ext_XXXXXX
 62
7
100
AcDbSpline
 70
8
 71
3
 72
8
 73
4
 74
0
 40
0
 40
0
 40
0
 40
0
 40
1
 40
1
 40
1
 40
1
 10
108.460820
 20
67.095157
 30
0.0
 10
106.036883
 20
66.728973
 30
0.0
 10
102.717597
 20
66.390307
 30
0.0
 10
102.717597
 20
66.390307
 30
0.0
  0
SPLINE
  5
14b
100
AcDbEntity
  8
ink_ext_XXXXXX
 62
7
100
AcDbSpline
 70
8
 71
3
 72
8
 73
4
 74
0
 40
0
 40
0
 40
0
 40
0
 40
1
 40
1
 40
1
 40
1
 10
102.717597
 20
66.390307
 30
0.0
 10
102.717597
 20
66.390307
 30
0.0
 10
108.985753
 20
67.348804
 30
0.0
 10
108.985753
 20
70.236643
 30
0.0
  0
SPLINE
  5
14c
100
AcDbEntity
  8
ink_ext_XXXXXX
 62
7
100
AcDbSpline
 70
8
 71
3
 72
8
 73
4
 74
0
 40
0
 40
0
 40
0
 40
0
 40
1
 40
1
 40
1
 40
1
 10
108.985753
 20
70.236643
 30
0.0
 10
108.985753
 20
71.538745
 30
0.0
 10
107.603570
 20
71.419859
 30
0.0
 10
104.316386
 20
72.391057
 30
0.0
  0
SPLINE
  5
14d
100
AcDbEntity
  8
ink_ext_XXXXXX
 62
7
100
AcDbSpline
 70
8
 71
3
 72
8
 73
4
 74
0
 40
0
 40
0
 40
0
 40
0
 40
1
 40
1
 40
1
 40
1
 10
104.316386
 20
72.391057
 30
0.0
 10
97.810106
 20
74.313343
 30
0.0
 10
100.223459
 20
77.634040
 30
0.0
 10
95.165684
 20
78.563609
 30
0.0
  0
SPLINE
  5
14e
100
AcDbEntity
  8
ink_ext_XXXXXX
 62
7
100
AcDbSpline
 70
8
 71
3
 72
8
 73
4
 74
0
 40
0
 40
0
 40
0
 40
0
 40
1
 40
1
 40
1
 40
1
 10
95.165684
 20
78.563609
 30
0.0
 10
92.294425
 20
79.091365
 30
0.0
 10
89.287348
 20
78.900865
 30
0.0
 10
87.007345
 20
75.844398
 30
0.0
  0
SPLINE
  5
14f
100
AcDbEntity
  8
ink_ext_XXXXXX
 62
7
100
AcDbSpline
 70
8
 71
3
 72
8
 73
4
 74
0
 40
0
 40
0
 40
0
 40
0
 40
1
 40
1
 40
1
 40
1
 10
87.007345
 20
75.844398
 30
0.0
 10
84.832823
 20
72.929395
 30
0.0
 10
85.939840
 20
71.498882
 30
0.0
 10
73.515006
 20
66.410415
 30
0.0
  0
SPLINE
  5
150
100
AcDbEntity
  8
ink_ext_XXXXXX
 62
7
100
AcDbSpline
 70
8
 71
3
 72
8
 73
4
 74
0
 40
0
 40
0
 40
0
 40
0
 40
1
 40
1
 40
1
 40
1
 10
73.515006
 20
66.410415
 30
0.0
 10
77.920848
 20
72.229484
 30
0.0
 10
74.499609
 20
71.015576
 30
0.0
 10
74.499609
 20
71.015576
 30
0.0
  0
SPLINE
  5
151
100
AcDbEntity
  8
ink_ext_XXXXXX
 62
7
100
AcDbSpline
 70
8
 71
3
 72
8
 73
4
 74
0
 40
0
 40
0
 40
0
 40
0
 40
1
 40
1
 40
1
 40
1
 10
128.464025
 20
87.593309
 30
0.0
 10
128.464025
 20
87.593309
 30
0.0
 10
134.498641
 20
87.425034
 30
0.0
 10
133.056838
 20
85.796259
 30
0.0
  0
SPLINE
  5
152
100
AcDbEntity
  8
ink_ext_XXXXXX
 62
7
100
AcDbSpline
 70
8
 71
3
 72
8
 73
4
 74
0
 40
0
 40
0
 40
0
 40
0
 40
1
 40
1
 40
1
 40
1
 10
133.056838
 20
85.796259
 30
0.0
 10
131.875386
 20
84.460290
 30
0.0
 10
129.611258
 20
82.965923
 30
0.0
 10
129.611258
 20
82.965923
 30
0.0
  0
SPLINE
  5
153
100
AcDbEntity
  8
ink_ext_XXXXXX
 62
7
100
AcDbSpline
 70
8
 71
3
 72
8
 73
4
 74
0
 40
0
 40
0
 40
0
 40
0
 40
1
 40
1
 40
1
 40
1
 10
129.611258
 20
82.965923
 30
0.0
 10
129.611258
 20
82.965923
 30
0.0
 10
129.496252
 20
83.937473
 30
0.0
 10
130.007075
 20
84.494156
 30
0.0
  0
SPLINE
  5
154
100
AcDbEntity
  8
ink_ext_XXXXXX
 62
7
100
AcDbSpline
 70
8
 71
3
 72
8
 73
4
 74
0
 40
0
 40
0
 40
0
 40
0
 40
1
 40
1
 40
1
 40
1
 10
130.007075
 20
84.494156
 30
0.0
 10
130.518250
 20
85.051898
 30
0.0
 10
130.823402
 20
85.400090
 30
0.0
 10
130.823402
 20
85.400090
 30
0.0
  0
SPLINE
  5
155
100
AcDbEntity
  8
ink_ext_XXXXXX
 62
7
100
AcDbSpline
 70
8
 71
3
 72
8
 73
4
 74
0
 40
0
 40
0
 40
0
 40
0
 40
1
 40
1
 40
1
 40
1
 10
130.823402
 20
85.400090
 30
0.0
 10
130.823402
 20
85.400090
 30
0.0
 10
129.724852
 20
85.342940
 30
0.0
 10
129.586916
 20
85.818484
 30
0.0
  0
SPLINE
  5
156
100
AcDbEntity
  8
ink_ext_XXXXXX
 62
7
100
AcDbSpline
 70
8
 71
3
 72
8
 73
4
 74
0
 40
0
 40
0
 40
0
 40
0
 40
1
 40
1
 40
1
 40
1
 10
129.586916
 20
85.818484
 30
0.0
 10
129.324802
 20
86.716656
 30
0.0
 10
128.464025
 20
87.593309
 30
0.0
 10
128.464025
 20
87.593309
 30
0.0
  0
SPLINE
  5
157
100
AcDbEntity
  8
ink_ext_XXXXXX
 62
7
100
AcDbSpline
 70
8
 71
3
 72
8
 73
4
 74
0
 40
0
 40
0
 40
0
 40
0
 40
1
 40
1
 40
1
 40
1
 10
60.702118
 20
127.487536
 30
0.0
 10
59.971868
 20
127.493886
 30
0.0
 10
58.765721
 20
127.373588
 30
0.0
 10
58.106732
 20
127.224716
 30
0.0
  0
SPLINE
  5
158
100
AcDbEntity
  8
ink_ext_XXXXXX
 62
7
100
AcDbSpline
 70
8
 71
3
 72
8
 73
4
 74
0
 40
0
 40
0
 40
0
 40
0
 40
1
 40
1
 40
1
 40
1
 10
58.106732
 20
127.224716
 30
0.0
 10
57.602612
 20
127.111475
 30
0.0
 10
57.018060
 20
126.964366
 30
0.0
 10
56.595432
 20
126.863825
 30
0.0
  0
SPLINE
  5
159
100
AcDbEntity
  8
ink_ext_XXXXXX
 62
7
100
AcDbSpline
 70
8
 71
3
 72
8
 73
4
 74
0
 40
0
 40
0
 40
0
 40
0
 40
1
 40
1
 40
1
 40
1
 10
56.595432
 20
126.863825
 30
0.0
 10
49.787879
 20
125.232227
 30
0.0
 10
49.075268
 20
122.703164
 30
0.0
 10
35.900077
 20
122.098503
 30
0.0
  0
SPLINE
  5
15a
100
AcDbEntity
  8
ink_ext_XXXXXX
 62
7
100
AcDbSpline
 70
8
 71
3
 72
8
 73
4
 74
0
 40
0
 40
0
 40
0
 40
0
 40
1
 40
1
 40
1
 40
1
 10
35.900077
 20
122.098503
 30
0.0
 10
35.900077
 20
122.098503
 30
0.0
 10
38.485938
 20
119.861891
 30
0.0
 10
43.253024
 20
120.224547
 30
0.0
  0
SPLINE
  5
15b
100
AcDbEntity
  8
ink_ext_XXXXXX
 62
7
100
AcDbSpline
 70
8
 71
3
 72
8
 73
4
 74
0
 40
0
 40
0
 40
0
 40
0
 40
1
 40
1
 40
1
 40
1
 10
43.253024
 20
120.224547
 30
0.0
 10
44.241507
 20
120.298630
 30
0.0
 10
46.369110
 20
120.556864
 30
0.0
 10
46.369110
 20
120.556864
 30
0.0
  0
SPLINE
  5
15c
100
AcDbEntity
  8
ink_ext_XXXXXX
 62
7
100
AcDbSpline
 70
8
 71
3
 72
8
 73
4
 74
0
 40
0
 40
0
 40
0
 40
0
 40
1
 40
1
 40
1
 40
1
 10
46.369110
 20
120.556864
 30
0.0
 10
46.454482
 20
119.895053
 30
0.0
 10
37.849174
 20
113.999078
 30
0.0
 10
22.239322
 20
116.512267
 30
0.0
  0
SPLINE
  5
15d
100
AcDbEntity
  8
ink_ext_XXXXXX
 62
7
100
AcDbSpline
 70
8
 71
3
 72
8
 73
4
 74
0
 40
0
 40
0
 40
0
 40
0
 40
1
 40
1
 40
1
 40
1
 10
22.239322
 20
116.512267
 30
0.0
 10
22.239322
 20
116.512267
 30
0.0
 10
34.123382
 20
110.639928
 30
0.0
 10
43.537363
 20
113.734494
 30
0.0
  0
SPLINE
  5
15e
100
AcDbEntity
  8
ink_ext_XXXXXX
 62
7
100
AcDbSpline
 70
8
 71
3
 72
8
 73
4
 74
0
 40
0
 40
0
 40
0
 40
0
 40
1
 40
1
 40
1
 40
1
 10
43.537363
 20
113.734494
 30
0.0
 10
51.514374
 20
116.356692
 30
0.0
 10
62.914387
 20
122.447400
 30
0.0
 10
73.972912
 20
114.049172
 30
0.0
  0
SPLINE
  5
15f
100
AcDbEntity
  8
ink_ext_XXXXXX
 62
7
100
AcDbSpline
 70
8
 71
3
 72
8
 73
4
 74
0
 40
0
 40
0
 40
0
 40
0
 40
1
 40
1
 40
1
 40
1
 10
78.644395
 20
110.538681
 30
0.0
 10
78.644395
 20
110.538681
 30
0.0
 10
79.107592
 20
112.236600
 30
0.0
 10
81.422520
 20
112.660992
 30
0.0
  0
SPLINE
  5
160
100
AcDbEntity
  8
ink_ext_XXXXXX
 62
7
100
AcDbSpline
 70
8
 71
3
 72
8
 73
4
 74
0
 40
0
 40
0
 40
0
 40
0
 40
1
 40
1
 40
1
 40
1
 10
81.422520
 20
112.660992
 30
0.0
 10
79.028570
 20
118.576369
 30
0.0
 10
68.807187
 20
127.734127
 30
0.0
 10
60.702118
 20
127.487536
 30
0.0
  0
SPLINE
  5
161
100
AcDbEntity
  8
ink_ext_XXXXXX
 62
7
100
AcDbSpline
 70
8
 71
3
 72
8
 73
4
 74
0
 40
0
 40
0
 40
0
 40
0
 40
1
 40
1
 40
1
 40
1
 10
120.828503
 20
96.499889
 30
0.0
 10
120.828503
 20
96.499889
 30
0.0
 10
118.521689
 20
96.197911
 30
0.0
 10
117.301783
 20
97.048459
 30
0.0
  0
SPLINE
  5
162
100
AcDbEntity
  8
ink_ext_XXXXXX
 62
7
100
AcDbSpline
 70
8
 71
3
 72
8
 73
4
 74
0
 40
0
 40
0
 40
0
 40
0
 40
1
 40
1
 40
1
 40
1
 10
117.301783
 20
97.048459
 30
0.0
 10
116.703119
 20
97.464736
 30
0.0
 10
116.381033
 20
97.662645
 30
0.0
 10
115.861744
 20
98.144186
 30
0.0
  0
SPLINE
  5
163
100
AcDbEntity
  8
ink_ext_XXXXXX
 62
7
100
AcDbSpline
 70
8
 71
3
 72
8
 73
4
 74
0
 40
0
 40
0
 40
0
 40
0
 40
1
 40
1
 40
1
 40
1
 10
115.861744
 20
98.144186
 30
0.0
 10
115.686414
 20
98.306464
 30
0.0
 10
114.097855
 20
97.697570
 30
0.0
 10
112.943214
 20
99.447348
 30
0.0
  0
SPLINE
  5
164
100
AcDbEntity
  8
ink_ext_XXXXXX
 62
7
100
AcDbSpline
 70
8
 71
3
 72
8
 73
4
 74
0
 40
0
 40
0
 40
0
 40
0
 40
1
 40
1
 40
1
 40
1
 10
112.943214
 20
99.447348
 30
0.0
 10
112.797517
 20
99.681945
 30
0.0
 10
112.449325
 20
100.098222
 30
0.0
 10
112.651114
 20
100.209700
 30
0.0
  0
SPLINE
  5
165
100
AcDbEntity
  8
ink_ext_XXXXXX
 62
7
100
AcDbSpline
 70
8
 71
3
 72
8
 73
4
 74
0
 40
0
 40
0
 40
0
 40
0
 40
1
 40
1
 40
1
 40
1
 10
112.651114
 20
100.209700
 30
0.0
 10
112.852550
 20
100.321178
 30
0.0
 10
115.226392
 20
98.815523
 30
0.0
 10
115.114914
 20
98.926295
 30
0.0
  0
SPLINE
  5
166
100
AcDbEntity
  8
ink_ext_XXXXXX
 62
7
100
AcDbSpline
 70
8
 71
3
 72
8
 73
4
 74
0
 40
0
 40
0
 40
0
 40
0
 40
1
 40
1
 40
1
 40
1
 10
115.114914
 20
98.926295
 30
0.0
 10
114.973097
 20
99.066348
 30
0.0
 10
114.408300
 20
99.605745
 30
0.0
 10
114.307758
 20
99.704170
 30
0.0
  0
SPLINE
  5
167
100
AcDbEntity
  8
ink_ext_XXXXXX
 62
7
100
AcDbSpline
 70
8
 71
3
 72
8
 73
4
 74
0
 40
0
 40
0
 40
0
 40
0
 40
1
 40
1
 40
1
 40
1
 10
114.307758
 20
99.704170
 30
0.0
 10
113.801169
 20
100.206172
 30
0.0
 10
112.408756
 20
101.662439
 30
0.0
 10
111.032569
 20
102.504520
 30
0.0
  0
SPLINE
  5
168
100
AcDbEntity
  8
ink_ext_XXXXXX
 62
7
100
AcDbSpline
 70
8
 71
3
 72
8
 73
4
 74
0
 40
0
 40
0
 40
0
 40
0
 40
1
 40
1
 40
1
 40
1
 10
111.032569
 20
102.504520
 30
0.0
 10
109.656031
 20
103.346247
 30
0.0
 10
112.052097
 20
99.255436
 30
0.0
 10
112.487425
 20
98.667356
 30
0.0
  0
SPLINE
  5
169
100
AcDbEntity
  8
ink_ext_XXXXXX
 62
7
100
AcDbSpline
 70
8
 71
3
 72
8
 73
4
 74
0
 40
0
 40
0
 40
0
 40
0
 40
1
 40
1
 40
1
 40
1
 10
112.487425
 20
98.667356
 30
0.0
 10
112.923458
 20
98.077511
 30
0.0
 10
113.440278
 20
97.607964
 30
0.0
 10
113.440278
 20
97.607964
 30
0.0
  0
SPLINE
  5
16a
100
AcDbEntity
  8
ink_ext_XXXXXX
 62
7
100
AcDbSpline
 70
8
 71
3
 72
8
 73
4
 74
0
 40
0
 40
0
 40
0
 40
0
 40
1
 40
1
 40
1
 40
1
 10
113.440278
 20
97.607964
 30
0.0
 10
113.440278
 20
97.607964
 30
0.0
 10
111.321142
 20
99.042711
 30
0.0
 10
110.763753
 20
99.374323
 30
0.0
  0
LWPOLYLINE
  5
16b
100
AcDbEntity
  8
ink_ext_XXXXXX
 62
7
100
AcDbPolyline
 90
2
 70
0
 10
73.972912
 20
114.049172
 30
0.0
 10
78.644395
 20
110.538681
 30
0.0
  0
SPLINE
  5
16c
100
AcDbEntity
  8
ink_ext_XXXXXX
 62
7
100
AcDbSpline
 70
8
 71
3
 72
8
 73
4
 74
0
 40
0
 40
0
 40
0
 40
0
 40
1
 40
1
 40
1
 40
1
 10
110.076189
 20
99.862920
 30
0.0
 10
110.076189
 20
99.862920
 30
0.0
 10
108.957531
 20
100.644322
 30
0.0
 10
109.380511
 20
100.517322
 30
0.0
  0
SPLINE
  5
16d
100
AcDbEntity
  8
ink_ext_XXXXXX
 62
7
100
AcDbSpline
 70
8
 71
3
 72
8
 73
4
 74
0
 40
0
 40
0
 40
0
 40
0
 40
1
 40
1
 40
1
 40
1
 10
109.380511
 20
100.517322
 30
0.0
 10
109.803844
 20
100.390322
 30
0.0
 10
110.819492
 20
100.135617
 30
0.0
 10
110.141453
 20
101.067656
 30
0.0
  0
SPLINE
  5
16e
100
AcDbEntity
  8
ink_ext_XXXXXX
 62
7
100
AcDbSpline
 70
8
 71
3
 72
8
 73
4
 74
0
 40
0
 40
0
 40
0
 40
0
 40
1
 40
1
 40
1
 40
1
 10
110.141453
 20
101.067656
 30
0.0
 10
109.545611
 20
102.063195
 30
0.0
 10
108.363453
 20
104.074028
 30
0.0
 10
108.895089
 20
104.491011
 30
0.0
  0
SPLINE
  5
16f
100
AcDbEntity
  8
ink_ext_XXXXXX
 62
7
100
AcDbSpline
 70
8
 71
3
 72
8
 73
4
 74
0
 40
0
 40
0
 40
0
 40
0
 40
1
 40
1
 40
1
 40
1
 10
108.895089
 20
104.491011
 30
0.0
 10
109.427078
 20
104.910111
 30
0.0
 10
112.622186
 20
103.010403
 30
0.0
 10
114.029769
 20
101.501220
 30
0.0
  0
SPLINE
  5
170
100
AcDbEntity
  8
ink_ext_XXXXXX
 62
7
100
AcDbSpline
 70
8
 71
3
 72
8
 73
4
 74
0
 40
0
 40
0
 40
0
 40
0
 40
1
 40
1
 40
1
 40
1
 10
114.029769
 20
101.501220
 30
0.0
 10
115.435942
 20
99.992389
 30
0.0
 10
115.644080
 20
99.724278
 30
0.0
 10
115.644080
 20
99.724278
 30
0.0
  0
SPLINE
  5
171
100
AcDbEntity
  8
ink_ext_XXXXXX
 62
7
100
AcDbSpline
 70
8
 71
3
 72
8
 73
4
 74
0
 40
0
 40
0
 40
0
 40
0
 40
1
 40
1
 40
1
 40
1
 10
115.644080
 20
99.724278
 30
0.0
 10
115.644080
 20
99.724278
 30
0.0
 10
118.332600
 20
96.362306
 30
0.0
 10
120.596375
 20
98.142070
 30
0.0
  0
SPLINE
  5
172
100
AcDbEntity
  8
ink_ext_XXXXXX
 62
7
100
AcDbSpline
 70
8
 71
3
 72
8
 73
4
 74
0
 40
0
 40
0
 40
0
 40
0
 40
1
 40
1
 40
1
 40
1
 10
120.596375
 20
98.142070
 30
0.0
 10
122.541944
 20
99.673125
 30
0.0
 10
118.168205
 20
99.897139
 30
0.0
 10
117.443953
 20
101.023911
 30
0.0
  0
SPLINE
  5
173
100
AcDbEntity
  8
ink_ext_XXXXXX
 62
7
100
AcDbSpline
 70
8
 71
3
 72
8
 73
4
 74
0
 40
0
 40
0
 40
0
 40
0
 40
1
 40
1
 40
1
 40
1
 10
117.443953
 20
101.023911
 30
0.0
 10
113.627955
 20
106.959045
 30
0.0
 10
108.044189
 20
110.196133
 30
0.0
 10
100.073175
 20
110.696372
 30
0.0
  0
SPLINE
  5
174
100
AcDbEntity
  8
ink_ext_XXXXXX
 62
7
100
AcDbSpline
 70
8
 71
3
 72
8
 73
4
 74
0
 40
0
 40
0
 40
0
 40
0
 40
1
 40
1
 40
1
 40
1
 10
100.073175
 20
110.696372
 30
0.0
 10
100.073175
 20
110.696372
 30
0.0
 10
102.060020
 20
107.718575
 30
0.0
 10
102.629403
 20
105.581447
 30
0.0
  0
SPLINE
  5
175
100
AcDbEntity
  8
ink_ext_XXXXXX
 62
7
100
AcDbSpline
 70
8
 71
3
 72
8
 73
4
 74
0
 40
0
 40
0
 40
0
 40
0
 40
1
 40
1
 40
1
 40
1
 10
102.629403
 20
105.581447
 30
0.0
 10
102.629403
 20
105.581447
 30
0.0
 10
96.406403
 20
110.056786
 30
0.0
 10
92.254914
 20
109.590061
 30
0.0
  0
SPLINE
  5
176
100
AcDbEntity
  8
ink_ext_XXXXXX
 62
7
100
AcDbSpline
 70
8
 71
3
 72
8
 73
4
 74
0
 40
0
 40
0
 40
0
 40
0
 40
1
 40
1
 40
1
 40
1
 10
92.254914
 20
109.590061
 30
0.0
 10
92.254914
 20
109.590061
 30
0.0
 10
95.131112
 20
107.822292
 30
0.0
 10
94.971303
 20
103.604481
 30
0.0
  0
LWPOLYLINE
  5
177
100
AcDbEntity
  8
ink_ext_XXXXXX
 62
7
100
AcDbPolyline
 90
2
 70
0
 10
110.763753
 20
99.374323
 30
0.0
 10
110.076189
 20
99.862920
 30
0.0
  0
SPLINE
  5
178
100
AcDbEntity
  8
ink_ext_XXXXXX
 62
7
100
AcDbSpline
 70
8
 71
3
 72
8
 73
4
 74
0
 40
0
 40
0
 40
0
 40
0
 40
1
 40
1
 40
1
 40
1
 10
91.133434
 20
102.539092
 30
0.0
 10
91.133434
 20
102.539092
 30
0.0
 10
93.775739
 20
101.736170
 30
0.0
 10
97.109136
 20
100.159959
 30
0.0
  0
SPLINE
  5
179
100
AcDbEntity
  8
ink_ext_XXXXXX
 62
7
100
AcDbSpline
 70
8
 71
3
 72
8
 73
4
 74
0
 40
0
 40
0
 40
0
 40
0
 40
1
 40
1
 40
1
 40
1
 10
97.109136
 20
100.159959
 30
0.0
 10
96.122770
 20
100.069647
 30
0.0
 10
95.062673
 20
99.911956
 30
0.0
 10
93.902034
 20
99.657956
 30
0.0
  0
SPLINE
  5
17a
100
AcDbEntity
  8
ink_ext_XXXXXX
 62
7
100
AcDbSpline
 70
8
 71
3
 72
8
 73
4
 74
0
 40
0
 40
0
 40
0
 40
0
 40
1
 40
1
 40
1
 40
1
 10
93.902034
 20
99.657956
 30
0.0
 10
93.902034
 20
99.657956
 30
0.0
 10
98.326573
 20
99.526723
 30
0.0
 10
102.445606
 20
97.178281
 30
0.0
  0
SPLINE
  5
17b
100
AcDbEntity
  8
ink_ext_XXXXXX
 62
7
100
AcDbSpline
 70
8
 71
3
 72
8
 73
4
 74
0
 40
0
 40
0
 40
0
 40
0
 40
1
 40
1
 40
1
 40
1
 10
102.445606
 20
97.178281
 30
0.0
 10
103.567439
 20
96.431803
 30
0.0
 10
104.657875
 20
95.607361
 30
0.0
 10
105.658706
 20
94.708484
 30
0.0
  0
SPLINE
  5
17c
100
AcDbEntity
  8
ink_ext_XXXXXX
 62
7
100
AcDbSpline
 70
8
 71
3
 72
8
 73
4
 74
0
 40
0
 40
0
 40
0
 40
0
 40
1
 40
1
 40
1
 40
1
 10
105.658706
 20
94.708484
 30
0.0
 10
106.175878
 20
94.173673
 30
0.0
 10
106.661300
 20
93.583475
 30
0.0
 10
107.098392
 20
92.926956
 30
0.0
  0
SPLINE
  5
17d
100
AcDbEntity
  8
ink_ext_XXXXXX
 62
7
100
AcDbSpline
 70
8
 71
3
 72
8
 73
4
 74
0
 40
0
 40
0
 40
0
 40
0
 40
1
 40
1
 40
1
 40
1
 10
107.098392
 20
92.926956
 30
0.0
 10
102.713011
 20
96.095959
 30
0.0
 10
96.350664
 20
95.805623
 30
0.0
 10
96.350664
 20
95.805623
 30
0.0
  0
SPLINE
  5
17e
100
AcDbEntity
  8
ink_ext_XXXXXX
 62
7
100
AcDbSpline
 70
8
 71
3
 72
8
 73
4
 74
0
 40
0
 40
0
 40
0
 40
0
 40
1
 40
1
 40
1
 40
1
 10
96.350664
 20
95.805623
 30
0.0
 10
96.350664
 20
95.805623
 30
0.0
 10
97.149000
 20
95.242589
 30
0.0
 10
98.362909
 20
94.423087
 30
0.0
  0
SPLINE
  5
17f
100
AcDbEntity
  8
ink_ext_XXXXXX
 62
7
100
AcDbSpline
 70
8
 71
3
 72
8
 73
4
 74
0
 40
0
 40
0
 40
0
 40
0
 40
1
 40
1
 40
1
 40
1
 10
98.362909
 20
94.423087
 30
0.0
 10
96.329498
 20
94.767398
 30
0.0
 10
94.293970
 20
95.001995
 30
0.0
 10
92.611220
 20
94.971656
 30
0.0
  0
SPLINE
  5
180
100
AcDbEntity
  8
ink_ext_XXXXXX
 62
7
100
AcDbSpline
 70
8
 71
3
 72
8
 73
4
 74
0
 40
0
 40
0
 40
0
 40
0
 40
1
 40
1
 40
1
 40
1
 10
92.611220
 20
94.971656
 30
0.0
 10
92.611220
 20
94.971656
 30
0.0
 10
97.538114
 20
93.937312
 30
0.0
 10
98.462745
 20
90.911537
 30
0.0
  0
SPLINE
  5
181
100
AcDbEntity
  8
ink_ext_XXXXXX
 62
7
100
AcDbSpline
 70
8
 71
3
 72
8
 73
4
 74
0
 40
0
 40
0
 40
0
 40
0
 40
1
 40
1
 40
1
 40
1
 10
98.462745
 20
90.911537
 30
0.0
 10
99.388081
 20
87.885409
 30
0.0
 10
97.890892
 20
86.259809
 30
0.0
 10
103.024514
 20
82.386309
 30
0.0
  0
SPLINE
  5
182
100
AcDbEntity
  8
ink_ext_XXXXXX
 62
7
100
AcDbSpline
 70
8
 71
3
 72
8
 73
4
 74
0
 40
0
 40
0
 40
0
 40
0
 40
1
 40
1
 40
1
 40
1
 10
103.024514
 20
82.386309
 30
0.0
 10
104.340728
 20
81.392887
 30
0.0
 10
105.150000
 20
81.136770
 30
0.0
 10
105.572628
 20
81.111370
 30
0.0
  0
SPLINE
  5
183
100
AcDbEntity
  8
ink_ext_XXXXXX
 62
7
100
AcDbSpline
 70
8
 71
3
 72
8
 73
4
 74
0
 40
0
 40
0
 40
0
 40
0
 40
1
 40
1
 40
1
 40
1
 10
105.572628
 20
81.111370
 30
0.0
 10
105.237489
 20
80.891942
 30
0.0
 10
104.697386
 20
80.328556
 30
0.0
 10
104.044747
 20
79.010226
 30
0.0
  0
SPLINE
  5
184
100
AcDbEntity
  8
ink_ext_XXXXXX
 62
7
100
AcDbSpline
 70
8
 71
3
 72
8
 73
4
 74
0
 40
0
 40
0
 40
0
 40
0
 40
1
 40
1
 40
1
 40
1
 10
104.044747
 20
79.010226
 30
0.0
 10
104.044747
 20
79.010226
 30
0.0
 10
105.650592
 20
80.029048
 30
0.0
 10
105.444217
 20
79.389109
 30
0.0
  0
SPLINE
  5
185
100
AcDbEntity
  8
ink_ext_XXXXXX
 62
7
100
AcDbSpline
 70
8
 71
3
 72
8
 73
4
 74
0
 40
0
 40
0
 40
0
 40
0
 40
1
 40
1
 40
1
 40
1
 10
105.444217
 20
79.389109
 30
0.0
 10
105.235725
 20
78.751640
 30
0.0
 10
103.153278
 20
75.666245
 30
0.0
 10
107.320289
 20
75.343806
 30
0.0
  0
SPLINE
  5
186
100
AcDbEntity
  8
ink_ext_XXXXXX
 62
7
100
AcDbSpline
 70
8
 71
3
 72
8
 73
4
 74
0
 40
0
 40
0
 40
0
 40
0
 40
1
 40
1
 40
1
 40
1
 10
107.320289
 20
75.343806
 30
0.0
 10
111.500706
 20
75.020662
 30
0.0
 10
116.819889
 20
75.164595
 30
0.0
 10
117.282380
 20
75.172004
 30
0.0
  0
SPLINE
  5
187
100
AcDbEntity
  8
ink_ext_XXXXXX
 62
7
100
AcDbSpline
 70
8
 71
3
 72
8
 73
4
 74
0
 40
0
 40
0
 40
0
 40
0
 40
1
 40
1
 40
1
 40
1
 10
117.282380
 20
75.172004
 30
0.0
 10
117.746636
 20
75.179765
 30
0.0
 10
119.072022
 20
75.445054
 30
0.0
 10
117.534969
 20
68.537312
 30
0.0
  0
SPLINE
  5
188
100
AcDbEntity
  8
ink_ext_XXXXXX
 62
7
100
AcDbSpline
 70
8
 71
3
 72
8
 73
4
 74
0
 40
0
 40
0
 40
0
 40
0
 40
1
 40
1
 40
1
 40
1
 10
117.534969
 20
68.537312
 30
0.0
 10
117.534969
 20
68.537312
 30
0.0
 10
120.156108
 20
72.475018
 30
0.0
 10
120.613661
 20
74.614968
 30
0.0
  0
SPLINE
  5
189
100
AcDbEntity
  8
ink_ext_XXXXXX
 62
7
100
AcDbSpline
 70
8
 71
3
 72
8
 73
4
 74
0
 40
0
 40
0
 40
0
 40
0
 40
1
 40
1
 40
1
 40
1
 10
120.613661
 20
74.614968
 30
0.0
 10
120.831678
 20
75.635906
 30
0.0
 10
121.848030
 20
77.117573
 30
0.0
 10
121.177400
 20
77.865109
 30
0.0
  0
SPLINE
  5
18a
100
AcDbEntity
  8
ink_ext_XXXXXX
 62
7
100
AcDbSpline
 70
8
 71
3
 72
8
 73
4
 74
0
 40
0
 40
0
 40
0
 40
0
 40
1
 40
1
 40
1
 40
1
 10
121.177400
 20
77.865109
 30
0.0
 10
119.578964
 20
77.502454
 30
0.0
 10
119.578964
 20
77.502454
 30
0.0
 10
118.245816
 20
77.466118
 30
0.0
  0
SPLINE
  5
18b
100
AcDbEntity
  8
ink_ext_XXXXXX
 62
7
100
AcDbSpline
 70
8
 71
3
 72
8
 73
4
 74
0
 40
0
 40
0
 40
0
 40
0
 40
1
 40
1
 40
1
 40
1
 10
118.245816
 20
77.466118
 30
0.0
 10
115.619739
 20
77.463648
 30
0.0
 10
108.776203
 20
77.987523
 30
0.0
 10
108.776203
 20
82.255781
 30
0.0
  0
SPLINE
  5
18c
100
AcDbEntity
  8
ink_ext_XXXXXX
 62
7
100
AcDbSpline
 70
8
 71
3
 72
8
 73
4
 74
0
 40
0
 40
0
 40
0
 40
0
 40
1
 40
1
 40
1
 40
1
 10
108.776203
 20
82.255781
 30
0.0
 10
105.568395
 20
85.407851
 30
0.0
 10
108.249858
 20
88.764884
 30
0.0
 10
108.723639
 20
89.068273
 30
0.0
  0
SPLINE
  5
18d
100
AcDbEntity
  8
ink_ext_XXXXXX
 62
7
100
AcDbSpline
 70
8
 71
3
 72
8
 73
4
 74
0
 40
0
 40
0
 40
0
 40
0
 40
1
 40
1
 40
1
 40
1
 10
108.723639
 20
89.068273
 30
0.0
 10
108.744453
 20
89.081678
 30
0.0
 10
111.763525
 20
91.810062
 30
0.0
 10
116.659022
 20
86.570606
 30
0.0
  0
SPLINE
  5
18e
100
AcDbEntity
  8
ink_ext_XXXXXX
 62
7
100
AcDbSpline
 70
8
 71
3
 72
8
 73
4
 74
0
 40
0
 40
0
 40
0
 40
0
 40
1
 40
1
 40
1
 40
1
 10
116.659022
 20
86.570606
 30
0.0
 10
117.268269
 20
85.784970
 30
0.0
 10
119.155983
 20
84.182653
 30
0.0
 10
119.612830
 20
82.806467
 30
0.0
  0
SPLINE
  5
18f
100
AcDbEntity
  8
ink_ext_XXXXXX
 62
7
100
AcDbSpline
 70
8
 71
3
 72
8
 73
4
 74
0
 40
0
 40
0
 40
0
 40
0
 40
1
 40
1
 40
1
 40
1
 10
119.612830
 20
82.806467
 30
0.0
 10
119.903872
 20
81.932990
 30
0.0
 10
120.200558
 20
81.368545
 30
0.0
 10
118.159386
 20
79.754940
 30
0.0
  0
SPLINE
  5
190
100
AcDbEntity
  8
ink_ext_XXXXXX
 62
7
100
AcDbSpline
 70
8
 71
3
 72
8
 73
4
 74
0
 40
0
 40
0
 40
0
 40
0
 40
1
 40
1
 40
1
 40
1
 10
118.159386
 20
79.754940
 30
0.0
 10
119.022280
 20
78.892398
 30
0.0
 10
121.234903
 20
78.890987
 30
0.0
 10
122.020539
 20
78.846890
 30
0.0
  0
SPLINE
  5
191
100
AcDbEntity
  8
ink_ext_XXXXXX
 62
7
100
AcDbSpline
 70
8
 71
3
 72
8
 73
4
 74
0
 40
0
 40
0
 40
0
 40
0
 40
1
 40
1
 40
1
 40
1
 10
122.020539
 20
78.846890
 30
0.0
 10
123.867330
 20
78.742467
 30
0.0
 10
124.674839
 20
79.219776
 30
0.0
 10
126.427086
 20
80.480604
 30
0.0
  0
SPLINE
  5
192
100
AcDbEntity
  8
ink_ext_XXXXXX
 62
7
100
AcDbSpline
 70
8
 71
3
 72
8
 73
4
 74
0
 40
0
 40
0
 40
0
 40
0
 40
1
 40
1
 40
1
 40
1
 10
126.427086
 20
80.480604
 30
0.0
 10
128.177569
 20
81.740726
 30
0.0
 10
129.436633
 20
82.103029
 30
0.0
 10
129.289172
 20
85.323184
 30
0.0
  0
SPLINE
  5
193
100
AcDbEntity
  8
ink_ext_XXXXXX
 62
7
100
AcDbSpline
 70
8
 71
3
 72
8
 73
4
 74
0
 40
0
 40
0
 40
0
 40
0
 40
1
 40
1
 40
1
 40
1
 10
129.289172
 20
85.323184
 30
0.0
 10
129.289172
 20
85.323184
 30
0.0
 10
128.737075
 20
87.067317
 30
0.0
 10
127.572202
 20
88.430098
 30
0.0
  0
SPLINE
  5
194
100
AcDbEntity
  8
ink_ext_XXXXXX
 62
7
100
AcDbSpline
 70
8
 71
3
 72
8
 73
4
 74
0
 40
0
 40
0
 40
0
 40
0
 40
1
 40
1
 40
1
 40
1
 10
127.572202
 20
88.430098
 30
0.0
 10
127.572202
 20
88.430098
 30
0.0
 10
131.695116
 20
88.187034
 30
0.0
 10
132.891033
 20
87.766876
 30
0.0
  0
SPLINE
  5
195
100
AcDbEntity
  8
ink_ext_XXXXXX
 62
7
100
AcDbSpline
 70
8
 71
3
 72
8
 73
4
 74
0
 40
0
 40
0
 40
0
 40
0
 40
1
 40
1
 40
1
 40
1
 10
132.891033
 20
87.766876
 30
0.0
 10
134.513458
 20
87.198198
 30
0.0
 10
124.650497
 20
96.082200
 30
0.0
 10
120.828503
 20
96.499889
 30
0.0
  0
SPLINE
  5
196
100
AcDbEntity
  8
ink_ext_XXXXXX
 62
7
100
AcDbSpline
 70
8
 71
3
 72
8
 73
4
 74
0
 40
0
 40
0
 40
0
 40
0
 40
1
 40
1
 40
1
 40
1
 10
93.367928
 20
103.987950
 30
0.0
 10
93.367928
 20
103.987950
 30
0.0
 10
80.537754
 20
111.830906
 30
0.0
 10
91.114737
 20
110.517161
 30
0.0
  0
SPLINE
  5
197
100
AcDbEntity
  8
ink_ext_XXXXXX
 62
7
100
AcDbSpline
 70
8
 71
3
 72
8
 73
4
 74
0
 40
0
 40
0
 40
0
 40
0
 40
1
 40
1
 40
1
 40
1
 10
91.114737
 20
110.517161
 30
0.0
 10
91.114737
 20
110.517161
 30
0.0
 10
81.559398
 20
113.715092
 30
0.0
 10
80.549395
 20
110.075131
 30
0.0
  0
SPLINE
  5
198
100
AcDbEntity
  8
ink_ext_XXXXXX
 62
7
100
AcDbSpline
 70
8
 71
3
 72
8
 73
4
 74
0
 40
0
 40
0
 40
0
 40
0
 40
1
 40
1
 40
1
 40
1
 10
80.549395
 20
110.075131
 30
0.0
 10
80.218137
 20
108.882036
 30
0.0
 10
81.328681
 20
108.952239
 30
0.0
 10
81.732259
 20
108.781847
 30
0.0
  0
SPLINE
  5
199
100
AcDbEntity
  8
ink_ext_XXXXXX
 62
7
100
AcDbSpline
 70
8
 71
3
 72
8
 73
4
 74
0
 40
0
 40
0
 40
0
 40
0
 40
1
 40
1
 40
1
 40
1
 10
81.732259
 20
108.781847
 30
0.0
 10
83.989684
 20
107.828289
 30
0.0
 10
86.494759
 20
104.492070
 30
0.0
 10
89.774181
 20
103.178325
 30
0.0
  0
SPLINE
  5
19a
100
AcDbEntity
  8
ink_ext_XXXXXX
 62
7
100
AcDbSpline
 70
8
 71
3
 72
8
 73
4
 74
0
 40
0
 40
0
 40
0
 40
0
 40
1
 40
1
 40
1
 40
1
 10
89.774181
 20
103.178325
 30
0.0
 10
90.612381
 20
102.855181
 30
0.0
 10
93.367928
 20
103.987950
 30
0.0
 10
93.367928
 20
103.987950
 30
0.0
  0
SPLINE
  5
19b
100
AcDbEntity
  8
ink_ext_XXXXXX
 62
7
100
AcDbSpline
 70
8
 71
3
 72
8
 73
4
 74
0
 40
0
 40
0
 40
0
 40
0
 40
1
 40
1
 40
1
 40
1
 10
24.297851
 20
83.710637
 30
0.0
 10
24.297851
 20
83.710637
 30
0.0
 10
20.665616
 20
85.088234
 30
0.0
 10
13.025367
 20
81.831742
 30
0.0
  0
SPLINE
  5
19c
100
AcDbEntity
  8
ink_ext_XXXXXX
 62
7
100
AcDbSpline
 70
8
 71
3
 72
8
 73
4
 74
0
 40
0
 40
0
 40
0
 40
0
 40
1
 40
1
 40
1
 40
1
 10
13.025367
 20
81.831742
 30
0.0
 10
5.385082
 20
78.575251
 30
0.0
 10
17.797497
 20
85.179251
 30
0.0
 10
17.797497
 20
85.179251
 30
0.0
  0
LWPOLYLINE
  5
19d
100
AcDbEntity
  8
ink_ext_XXXXXX
 62
7
100
AcDbPolyline
 90
2
 70
0
 10
94.971303
 20
103.604481
 30
0.0
 10
91.133434
 20
102.539092
 30
0.0
  0
LWPOLYLINE
  5
19e
100
AcDbEntity
  8
ink_ext_XXXXXX
 62
7
100
AcDbPolyline
 90
2
 70
0
 10
17.797497
 20
85.179251
 30
0.0
 10
24.297851
 20
83.710637
 30
0.0
  0
ENDSEC
  0
SECTION
  2
OBJECTS
  0
DICTIONARY
  5
C
330
0
100
AcDbDictionary
  3
ACAD_GROUP
350
D
  3
ACAD_MLINESTYLE
350
17
  0
DICTIONARY
  5
D
330
C
100
AcDbDictionary
  0
DICTIONARY
  5
1A
330
C
100
AcDbDictionary
  0
DICTIONARY
  5
17
330
C
100
AcDbDictionary
  3
STANDARD
350
18
  0
DICTIONARY
  5
19
330
C
100
AcDbDictionary
  0
ENDSEC
  0
EOF
